<svg width="50" height="48" viewBox="0 0 50 48" fill="none" xmlns="http://www.w3.org/2000/svg">
<path fill-rule="evenodd" clip-rule="evenodd" d="M24.6858 48C38.3192 48 49.3713 37.2548 49.3713 24C49.3713 10.7452 38.3192 0 24.6858 0C11.0524 0 0.000305176 10.7452 0.000305176 24C0.000305176 37.2548 11.0524 48 24.6858 48Z" fill="#EFF2F6"/>
<g clip-path="url(#clip0_1_780)">
<path d="M25.1429 24.75C26.7729 24.75 28.2129 25.14 29.3829 25.65C30.4629 26.13 31.1429 27.21 31.1429 28.38V30H19.1429V28.39C19.1429 27.21 19.8229 26.13 20.9029 25.66C22.0729 25.14 23.5129 24.75 25.1429 24.75ZM17.1429 25C18.2429 25 19.1429 24.1 19.1429 23C19.1429 21.9 18.2429 21 17.1429 21C16.0429 21 15.1429 21.9 15.1429 23C15.1429 24.1 16.0429 25 17.1429 25ZM18.2729 26.1C17.9029 26.04 17.5329 26 17.1429 26C16.1529 26 15.2129 26.21 14.3629 26.58C13.6229 26.9 13.1429 27.62 13.1429 28.43V30H17.6429V28.39C17.6429 27.56 17.8729 26.78 18.2729 26.1ZM33.1429 25C34.2429 25 35.1429 24.1 35.1429 23C35.1429 21.9 34.2429 21 33.1429 21C32.0429 21 31.1429 21.9 31.1429 23C31.1429 24.1 32.0429 25 33.1429 25ZM37.1429 28.43C37.1429 27.62 36.6629 26.9 35.9229 26.58C35.0729 26.21 34.1329 26 33.1429 26C32.7529 26 32.3829 26.04 32.0129 26.1C32.4129 26.78 32.6429 27.56 32.6429 28.39V30H37.1429V28.43ZM25.1429 18C26.8029 18 28.1429 19.34 28.1429 21C28.1429 22.66 26.8029 24 25.1429 24C23.4829 24 22.1429 22.66 22.1429 21C22.1429 19.34 23.4829 18 25.1429 18Z" fill="#323232"/>
</g>
<defs>
<clipPath id="clip0_1_780">
<rect width="24" height="24" fill="white" transform="translate(13.1429 12)"/>
</clipPath>
</defs>
</svg>
