<svg width="51" height="48" viewBox="0 0 51 48" fill="none" xmlns="http://www.w3.org/2000/svg">
<path fill-rule="evenodd" clip-rule="evenodd" d="M25.5426 48C39.1762 48 50.2283 37.2548 50.2283 24C50.2283 10.7452 39.1762 0 25.5426 0C11.9091 0 0.856934 10.7452 0.856934 24C0.856934 37.2548 11.9091 48 25.5426 48Z" fill="#EFF2F6"/>
<path d="M25.8569 33.35L24.4069 32.03C19.2569 27.36 15.8569 24.28 15.8569 20.5C15.8569 17.42 18.2769 15 21.3569 15C23.0969 15 24.7669 15.81 25.8569 17.09C26.9469 15.81 28.6169 15 30.3569 15C33.4369 15 35.8569 17.42 35.8569 20.5C35.8569 24.28 32.4569 27.36 27.3069 32.04L25.8569 33.35Z" fill="#323232"/>
</svg>
