<svg width="23" height="23" viewBox="0 0 23 23" fill="none" xmlns="http://www.w3.org/2000/svg">
<path d="M21.0967 8.41939C21.0391 8.24958 20.9329 8.10037 20.7914 7.99018C20.65 7.87999 20.4793 7.81365 20.3005 7.79934L15.0714 7.38383L12.8086 2.37482C12.7365 2.21349 12.6193 2.07646 12.4711 1.98028C12.3229 1.88409 12.15 1.83286 11.9733 1.83276C11.7966 1.83267 11.6236 1.88371 11.4753 1.97973C11.327 2.07575 11.2096 2.21265 11.1374 2.3739L8.87456 7.38383L3.64541 7.79934C3.46972 7.81326 3.30176 7.8775 3.16162 7.98438C3.02148 8.09125 2.9151 8.23624 2.85521 8.40199C2.79531 8.56774 2.78444 8.74724 2.82388 8.91901C2.86333 9.09078 2.95143 9.24755 3.07764 9.37056L6.94195 13.1376L5.57527 19.0556C5.53377 19.2348 5.54707 19.4222 5.61345 19.5937C5.67982 19.7652 5.7962 19.9128 5.94749 20.0173C6.09877 20.1218 6.27798 20.1785 6.46185 20.1799C6.64573 20.1813 6.82578 20.1274 6.97864 20.0252L11.973 16.6956L16.9673 20.0252C17.1236 20.1289 17.3078 20.1823 17.4953 20.1782C17.6828 20.1741 17.8645 20.1126 18.0161 20.0022C18.1676 19.8917 18.2817 19.7374 18.343 19.5602C18.4042 19.3829 18.4097 19.1912 18.3588 19.0107L16.6811 13.1404L20.8417 9.39625C21.1141 9.15043 21.2141 8.76702 21.0967 8.41939V8.41939Z" fill="#E77C40"/>
</svg>
