<svg width="26" height="24" viewBox="0 0 26 24" fill="none" xmlns="http://www.w3.org/2000/svg">
<g clip-path="url(#clip0_0_819)">
<path d="M13.1428 12.75C14.7728 12.75 16.2128 13.14 17.3828 13.65C18.4628 14.13 19.1428 15.21 19.1428 16.38V18H7.14282V16.39C7.14282 15.21 7.82282 14.13 8.90282 13.66C10.0728 13.14 11.5128 12.75 13.1428 12.75ZM5.14282 13C6.24282 13 7.14282 12.1 7.14282 11C7.14282 9.9 6.24282 9 5.14282 9C4.04282 9 3.14282 9.9 3.14282 11C3.14282 12.1 4.04282 13 5.14282 13ZM6.27282 14.1C5.90282 14.04 5.53282 14 5.14282 14C4.15282 14 3.21282 14.21 2.36282 14.58C1.62282 14.9 1.14282 15.62 1.14282 16.43V18H5.64282V16.39C5.64282 15.56 5.87282 14.78 6.27282 14.1ZM21.1428 13C22.2428 13 23.1428 12.1 23.1428 11C23.1428 9.9 22.2428 9 21.1428 9C20.0428 9 19.1428 9.9 19.1428 11C19.1428 12.1 20.0428 13 21.1428 13ZM25.1428 16.43C25.1428 15.62 24.6628 14.9 23.9228 14.58C23.0728 14.21 22.1328 14 21.1428 14C20.7528 14 20.3828 14.04 20.0128 14.1C20.4128 14.78 20.6428 15.56 20.6428 16.39V18H25.1428V16.43ZM13.1428 6C14.8028 6 16.1428 7.34 16.1428 9C16.1428 10.66 14.8028 12 13.1428 12C11.4828 12 10.1428 10.66 10.1428 9C10.1428 7.34 11.4828 6 13.1428 6Z" fill="#323232"/>
</g>
<defs>
<clipPath id="clip0_0_819">
<rect width="24" height="24" fill="white" transform="translate(1.14282)"/>
</clipPath>
</defs>
</svg>
